# xmcd
#
# Track frame offsets:
# 150
# 10472
# 22665
# 31993
# 42563
# 55586
# 68278
# 79324
# 94122
# 107284
# 119890
# 137220
# 150621
# 169831
# 185248
# 210616
# 226803
# 240827
# 255647
# 277393
# 295749
# 313249
#
# Disc length: 4433 seconds
#
# Revision: 1
# Processed by: cddbd v1.5.2PL0 Copyright (c) Steve Scherf et al.
# Submitted via: CedeCatalogueitor 2.6.0.6 http://personales.ya.com/cdcatalogueitor
#
DISCID=32114f16
DTITLE=Neville Brothers - Treacherous
DYEAR=1986
DGENRE=
TTITLE0=Mardi Gras Mambo
TTITLE1=Cha Dooky Doo
TTITLE2=Zing Zing
TTITLE3=Over You
TTITLE4=Every Day
TTITLE5=Let's Live
TTITLE6=Waiting At The Station
TTITLE7=All These Things
TTITLE8=How Can I Help But Love You
TTITLE9=Wrong Number
TTITLE10=Where Is My Baby
TTITLE11=Gossip
TTITLE12=Hercules
TTITLE13=Meet De Boys On The Battlefront
TTITLE14=Brother John/ikoiko
TTITLE15=The Greatest Love
TTITLE16=Performance
TTITLE17=Dancing Jones
TTITLE18=Arianne
TTITLE19=Washable Ink
TTITLE20=I Love Her Too
TTITLE21=Hey Pocky Way
EXTD=
EXTT0=
EXTT1=
EXTT2=
EXTT3=
EXTT4=
EXTT5=
EXTT6=
EXTT7=
EXTT8=
EXTT9=
EXTT10=
EXTT11=
EXTT12=
EXTT13=
EXTT14=
EXTT15=
EXTT16=
EXTT17=
EXTT18=
EXTT19=
EXTT20=
EXTT21=
PLAYORDER=
